<svg xmlns="http://www.w3.org/2000/svg" xml:space="preserve" width="1620px" height="580px" x="0px" y="0px" viewBox="0 0 1620 580"><path fill="#FFF" d="M142.536 435.059h-10.71L67.329 580h24.752c4.046-13.805 8.568-27.132 14.042-40.46h52.598c6.426 15.708 11.424 29.987 15.232 40.46h30.702l-62.119-144.941zm-9.996 42.126c15.708 35.938 15.946 36.176 19.516 45.458h-39.031c4.283-9.521 4.283-9.759 19.515-45.458zM1086.196 580h30.701l-62.117-144.941h-10.71l-64.497 144.94h24.752c4.046-13.804 8.567-27.131 14.042-40.459h52.598c6.663 15.708 11.661 29.988 15.231 40.46zm-41.411-102.815c15.707 36.414 15.945 36.414 19.516 45.458h-38.794c3.094-7.141 3.094-7.379 19.278-45.458zM940.542 580c-3.809-44.982-6.427-72.113-8.33-89.964-24.276 43.792-34.985 65.212-44.743 87.821h-8.092c-24.515-50.218-27.133-55.215-32.844-65.688-2.381-4.521-5.236-9.758-11.187-21.182-.952 9.044-5.474 48.552-8.33 89.011h-22.134c7.141-50.931 18.088-137.086 18.803-142.084h13.09c1.903 4.046 3.808 7.854 5.949 11.662 16.184 32.605 29.036 58.309 44.744 84.965l.237.476.238-.476c7.14-12.852 13.328-24.99 19.516-36.651a2439.204 2439.204 0 0 1 32.606-59.976h11.899c.476 4.521 8.567 74.731 16.897 142.084l-28.319.002zm428.871 0V437.915h26.418V580h-26.418zm-661.157 0c-5.949-7.616-48.313-54.264-88.772-99.008V580h-20.468V437.915h14.518l87.345 94.723v-94.723h20.468V580h-13.091zm-353.664 0V457.193c-14.994 0-29.988.952-44.744 2.856v-22.134H423.85v22.134a323.799 323.799 0 0 0-42.84-2.856V580h-26.418zm-66.878-112.335c-1.904-6.188-8.092-15.946-25.228-15.946-12.852 0-24.038 8.806-24.038 19.516 0 13.804 15.47 19.04 26.18 22.848 19.04 7.141 31.416 11.662 38.317 25.466 2.856 5.475 4.284 11.424 4.284 17.612-.238 12.138-5.474 23.8-14.518 31.653-10.472 9.521-25.465 14.518-42.839 14.518a64.272 64.272 0 0 1-38.08-11.661v-30.464h10.234c4.046 9.044 12.138 24.038 32.367 24.038 4.76 0 27.608-2.143 27.132-22.849-.476-14.756-12.376-19.039-27.132-24.037-7.616-2.618-30.463-9.044-38.555-28.56-3.094-7.141-3.332-14.994-1.19-22.61 4.76-17.136 22.848-33.319 47.837-33.319 12.138.238 24.038 3.332 34.985 8.567v24.752l-9.756.476zM500.96 584.76c-19.039.237-37.365-6.902-51.407-19.754-12.138-11.424-22.372-29.75-22.372-56.168 0-26.417 10.473-44.743 22.372-56.167 13.804-12.852 32.368-19.992 51.407-19.754 17.851 0 52.598 7.378 67.592 43.554 4.284 10.233 6.188 21.182 6.188 32.367 0 26.418-10.472 44.744-22.371 56.168-14.043 13.09-32.369 19.991-51.409 19.754zm0-16.898c21.896 0 44.268-20.229 44.268-59.023 0-38.793-22.371-59.023-44.268-59.023h-.237c-21.896 0-44.268 20.23-44.268 59.023 0 38.793 22.371 59.023 44.505 59.023zm629.504-129.947c7.616-.476 39.983-.952 40.46-.952 24.275 0 33.795 4.76 41.887 12.852 7.616 7.378 11.662 17.612 11.424 28.322-.237 9.996-4.521 19.516-11.424 26.655-5.712 5.475-12.613 9.521-20.229 12.138l53.312 62.594h-32.605l-48.076-59.262h-8.806v59.262h-26.18V437.915h.237zm36.89 14.756c-3.57 0-7.141.238-10.472.714h-.238v50.218h.238c3.569.714 7.14.952 10.71.952 21.419 0 30.939-13.566 30.939-26.418 0-6.426-2.618-12.852-7.141-17.612-5.235-5.236-13.327-7.854-24.036-7.854zM1280.878 580V457.193c-14.993 0-29.987.952-44.743 2.856v-22.134h114.001v22.134a323.799 323.799 0 0 0-42.84-2.856V580h-26.418zm258.941 0c-5.95-7.616-48.313-54.264-88.772-99.008V580h-20.468V437.915h14.518l87.345 94.723v-94.723h20.468V580h-13.091zM1412.967 0H913.648c-9.044 0-21.658-.238-34.986 13.327-12.613 12.614-8.806 25.229-29.75 25.229h-72.827c-20.943 0-17.136-12.614-29.749-25.229C733.008-.238 720.394 0 711.35 0H212.031c-17.136 0-24.514 15.231-16.422 28.798l9.044 14.993c3.332 5.95 9.282 9.758 15.708 10.472 4.521.238 8.33 3.095 10.234 7.141l8.092 14.042c6.188 11.424 13.566 12.613 18.802 13.804 4.284.714 8.092 1.189 13.566 10.71 5.712 10.472 13.566 23.8 31.654 29.035l186.59 54.502c19.277 6.188 24.275 13.327 29.987 21.657 3.094 4.284 12.138 19.754 37.365 26.656l177.309 47.837c16.659 4.522 28.321-1.903 36.413-9.044l32.13-30.463c8.33-7.854 11.662-7.854 19.992 0l32.13 30.463c8.092 7.141 19.753 13.566 36.413 9.044l177.309-47.837c25.228-6.664 34.509-22.372 37.365-26.656 5.712-8.092 10.71-15.231 29.987-21.657l186.591-54.502c18.087-5.474 25.941-18.563 31.653-29.035 5.236-9.758 9.044-9.996 13.566-10.71 5.474-.952 12.852-2.38 18.801-13.804l7.854-14.042c3.332-5.712 5.95-6.426 10.233-7.141 6.664-.714 12.614-4.521 15.708-10.472l9.044-14.993C1437.48 15.232 1430.103 0 1412.967 0zM212.269 30.94l-5.474-9.044c-1.666-2.618-2.618-8.806 4.998-8.806h499.319c9.995 0 21.42-.238 32.367 19.039 1.429 2.856 3.332 5.475 5.236 8.093H242.971c-20.468 0-24.514.237-30.702-9.282zm323.915 106.146V50.455h552.631v86.631H536.184zM252.015 71.875c-4.76-4.76-7.616-14.28-11.9-20.229l286.311-1.19V63.07l-242.52 14.042c-18.563 1.189-26.417.237-31.891-5.237zm37.365 32.844c-2.618-3.57-4.998-7.14-6.902-11.186-.952-1.666-1.904-3.57-3.094-5.236 3.57-.238 4.046-.238 10.472-.714l236.331-14.518V86.63L339.36 106.623c-24.99 2.856-42.126 6.663-49.98-1.904zm64.022 25.466-34.034-9.996c22.61-2.618 206.819-23.324 206.819-23.324v14.994l-119.712 19.278c-13.804 2.142-30.463 4.998-53.073-.952zm83.061 24.275-37.842-10.947c3.57-.477 5.712-.952 9.758-1.429l118.046-19.754v16.185l-44.505 12.613c-.476-.237-27.845 8.092-45.457 3.332zm56.405 16.422-21.896-6.426c4.521-.952 9.282-1.904 13.804-3.332l48.313-14.042h54.025l-49.979 23.324c-15.945 5.95-30.225 4.046-44.267.476zm49.741 40.222a45.924 45.924 0 0 1-12.613-13.565c-2.856-4.522-6.426-8.807-10.472-12.614 4.046-.238 7.854-.714 11.899-1.666 6.426-1.904 12.614-4.284 18.802-7.14l59.976-29.274h39.983l-78.539 55.692c-12.137 7.853-21.658 10.947-29.036 8.567zm59.262 19.278-38.556-10.473a83.443 83.443 0 0 0 14.28-7.854c4.046-2.618-.714.714 90.677-65.212h33.319l-61.403 63.069c-10.709 11.188-22.609 23.326-38.317 20.47zm60.69 16.421-36.176-9.758c9.996-5.712 18.564-15.47 22.134-19.039l68.544-71.162h29.987l-54.501 85.203c-9.045 13.567-19.278 16.66-29.988 14.756zm63.544 17.137-38.555-10.473c6.188-4.046 11.424-9.52 15.231-15.708l57.119-90.677h25.942s-33.559 98.293-35.938 103.291c-6.662 14.281-14.278 15.47-23.799 13.567zm137.326-3.095-31.892-30.226c-13.328-12.613-24.752-12.613-38.08 0l-31.892 30.226c-2.142 1.904-4.76 3.809-7.378 4.998 5.95-7.378 9.282-17.611 11.662-24.275l31.653-94.485h30.226l31.654 94.485c2.38 6.901 5.712 17.136 11.662 24.275-2.856-1.428-5.235-3.094-7.615-4.998zm35.462 3.095c-9.282 1.903-17.137.714-23.801-13.566-2.379-4.998-35.938-103.291-35.938-103.291h25.942l57.119 90.677c3.808 6.427 8.806 11.662 14.994 15.708l-38.316 10.472zm63.545-17.137c-10.71 1.904-20.943-.951-29.75-14.518l-54.501-85.203h29.987l68.306 70.924c3.332 3.569 12.138 13.327 22.134 19.039l-36.176 9.758zm60.689-16.421c-15.708 2.855-27.607-9.282-38.317-20.469l-61.642-63.069h33.319s86.632 62.594 90.677 65.212a83.443 83.443 0 0 0 14.28 7.854l-38.317 10.472zm71.875-32.844c-3.332 5.235-7.616 9.758-12.613 13.565-7.379 2.38-16.898-.476-29.036-8.33-3.57-2.142-78.539-55.691-78.539-55.691h39.983s46.172 22.848 59.976 29.036c7.616 3.569 17.611 8.092 30.701 8.806-4.046 3.808-7.616 8.092-10.472 12.614zm37.128-26.656c-14.28 3.808-28.322 5.712-44.268-.476-5.712-2.143-49.979-23.324-49.979-23.324h54.025l48.313 14.042c4.521 1.428 9.044 2.38 13.804 3.332l-21.895 6.426zm56.405-16.422c-17.611 4.76-45.457-3.332-45.457-3.332l-44.506-12.613V122.33l118.047 19.754c4.046.714 6.188.952 9.758 1.429l-37.842 10.947zm83.061-24.275c-22.609 5.95-39.27 3.332-53.073.952l-119.712-19.278V96.865l206.819 23.324-34.034 9.996zm70.924-36.652c-2.143 3.808-4.284 7.615-6.902 11.186-7.854 8.567-24.989 4.76-49.979 2.142L1098.81 86.869V73.303l236.332 14.519c6.426.476 7.14.476 10.71.714-1.191 1.665-2.38 3.331-3.332 4.997zm26.893-20.23c-9.044 5.95-19.516 4.046-50.218 2.38L1098.81 62.831V50.217l286.311 1.19c-5.95 8.569-7.616 16.898-15.708 21.896zm48.79-51.407-5.475 9.044c-6.188 9.52-9.996 9.282-30.701 9.282H876.044c1.904-2.618 3.809-5.236 5.236-8.092 10.948-19.04 22.372-19.04 32.368-19.04h499.318c7.854 0 6.665 6.188 5.237 8.806zm-564.055 97.817c-1.189-15.708-2.142-24.752-2.855-31.178-5.713 9.758-10.71 19.991-15.471 30.463h-3.332c-8.329-17.136-9.281-19.039-11.661-23.562l-3.332-6.426c-.714 6.188-1.904 18.326-2.856 30.702h-8.567c2.38-18.088 6.426-48.552 6.901-51.17h5.236s12.376 24.752 17.85 34.034c6.188-11.425 10.234-19.754 18.326-34.034h4.76c.952 7.378 3.57 30.702 6.188 51.17h-11.187zm157.793 0v-51.17h-10.234v51.17h10.234zm-30.463 0V76.159c4.997 0 10.233.476 15.231 1.189v-8.806h-41.174v8.568c5.236-.715 10.71-.952 15.946-.952v43.554h9.997v.001zm-319.394 0V76.159c4.998 0 10.234.476 15.232 1.189v-8.806h-41.174v8.568c5.236-.715 10.71-.952 15.946-.952v43.554h9.996v.001zm118.285 0v-51.17h-8.092v33.082l-30.464-33.082h-5.712v51.17h8.092v-34.51l30.939 34.51h5.237zm-178.022-14.518v11.424c4.046 2.856 9.044 4.284 14.042 4.284 10.948 0 20.944-6.188 20.944-16.66 0-5.712-3.332-10.947-8.806-13.09-6.427-2.855-10.473-3.569-13.328-5.949-4.998-4.284-.952-11.187 5.949-11.187 3.809-.237 7.379 2.143 8.568 5.712h3.808v-9.52c-4.046-1.904-8.329-3.094-12.852-3.094-4.046 0-8.092 1.189-11.186 3.569-7.854 5.712-9.996 17.374 1.189 24.038 6.902 4.284 16.422 3.808 16.66 11.186.238 5.712-5.236 7.616-9.282 7.616-8.092 0-10.472-7.14-11.186-8.567h-4.521l.001.238zm-.476 14.518-22.372-52.122h-4.283l-23.324 52.122h9.52a170.366 170.366 0 0 1 4.998-14.28h18.088c2.38 5.712 4.046 10.71 5.475 14.28h11.898zm-32.367-21.182 6.188-14.756c4.998 11.187 5.236 12.139 6.426 14.756h-12.614zm160.172-4.522c0-18.088-13.328-27.37-26.656-27.37-13.327 0-26.417 9.282-26.417 27.37s13.328 27.37 26.418 27.37 26.655-9.282 26.655-27.37zm-26.656 20.706c-8.092 0-15.469-7.616-15.469-20.468 0-13.566 7.615-20.468 15.469-20.468 7.616 0 15.471 7.14 15.471 20.468-.001 13.327-7.855 20.468-15.471 20.468zm216.102 4.998h9.995V98.531h2.618l17.136 20.944h12.614l-19.04-22.61c2.618-.951 4.76-2.38 6.902-4.283 5.474-5.475 5.474-14.519 0-19.992-2.856-3.094-6.426-4.76-15.232-4.76 0 0-11.661 0-14.756.238l-.237 51.645zm9.995-44.982c1.19-.237 2.381-.237 3.57-.237 10.473 0 10.71 7.615 10.71 8.806 0 5.236-4.76 10.234-14.28 8.568V74.731zm-12.613 44.982-22.372-52.122h-4.284l-23.323 52.122h9.521a169.998 169.998 0 0 1 4.997-14.28h18.088c2.38 5.712 4.046 10.71 5.475 14.28h11.898zm-32.606-21.182 6.188-14.756c4.998 11.187 5.236 12.139 6.426 14.756h-12.614zm182.544 21.182v-51.17h-8.092v33.082l-30.464-33.082h-5.712v51.17h8.092v-34.51l30.939 34.51h5.237z"/></svg>